<mxfile host="app.diagrams.net" modified="2023-09-14T09:49:12.299Z" agent="Mozilla/5.0 (Windows NT 10.0; Win64; x64) AppleWebKit/537.36 (KHTML, like Gecko) Chrome/114.0.0.0 YaBrowser/23.7.5.704 Yowser/2.5 Safari/537.36" etag="sJrVgQsCFI2aRMDT9P8k" version="21.7.4" type="github">
  <diagram name="Страница — 1" id="h5BRIeBYnFagLnXpIMxx">
    <mxGraphModel dx="1386" dy="759" grid="1" gridSize="10" guides="1" tooltips="1" connect="1" arrows="1" fold="1" page="1" pageScale="1" pageWidth="827" pageHeight="1169" math="0" shadow="0">
      <root>
        <mxCell id="0" />
        <mxCell id="1" parent="0" />
        <mxCell id="VnPzbAnFsitzOTRRG-03-4" style="edgeStyle=orthogonalEdgeStyle;rounded=0;orthogonalLoop=1;jettySize=auto;html=1;exitX=0.5;exitY=1;exitDx=0;exitDy=0;entryX=0.5;entryY=0;entryDx=0;entryDy=0;" edge="1" parent="1" source="VnPzbAnFsitzOTRRG-03-1" target="VnPzbAnFsitzOTRRG-03-2">
          <mxGeometry relative="1" as="geometry" />
        </mxCell>
        <mxCell id="VnPzbAnFsitzOTRRG-03-1" value="Start" style="ellipse;whiteSpace=wrap;html=1;" vertex="1" parent="1">
          <mxGeometry x="354" y="20" width="120" height="80" as="geometry" />
        </mxCell>
        <mxCell id="VnPzbAnFsitzOTRRG-03-5" style="edgeStyle=orthogonalEdgeStyle;rounded=0;orthogonalLoop=1;jettySize=auto;html=1;exitX=0.5;exitY=1;exitDx=0;exitDy=0;entryX=0.5;entryY=0;entryDx=0;entryDy=0;" edge="1" parent="1" source="VnPzbAnFsitzOTRRG-03-2" target="VnPzbAnFsitzOTRRG-03-3">
          <mxGeometry relative="1" as="geometry" />
        </mxCell>
        <mxCell id="VnPzbAnFsitzOTRRG-03-2" value="numbers = [1, 8, 3, 8, 2, 6, 8, 8]&lt;br&gt;index = 0&lt;br&gt;maximum = numbers[index]&lt;br&gt;count_maximal = 0" style="rounded=0;whiteSpace=wrap;html=1;" vertex="1" parent="1">
          <mxGeometry x="322" y="126" width="184" height="90" as="geometry" />
        </mxCell>
        <mxCell id="VnPzbAnFsitzOTRRG-03-7" style="edgeStyle=orthogonalEdgeStyle;rounded=0;orthogonalLoop=1;jettySize=auto;html=1;exitX=0.5;exitY=1;exitDx=0;exitDy=0;entryX=0.5;entryY=0;entryDx=0;entryDy=0;" edge="1" parent="1" source="VnPzbAnFsitzOTRRG-03-3" target="VnPzbAnFsitzOTRRG-03-6">
          <mxGeometry relative="1" as="geometry" />
        </mxCell>
        <mxCell id="VnPzbAnFsitzOTRRG-03-8" value="Yes" style="edgeLabel;html=1;align=center;verticalAlign=middle;resizable=0;points=[];" vertex="1" connectable="0" parent="VnPzbAnFsitzOTRRG-03-7">
          <mxGeometry x="-0.037" y="-1" relative="1" as="geometry">
            <mxPoint as="offset" />
          </mxGeometry>
        </mxCell>
        <mxCell id="VnPzbAnFsitzOTRRG-03-26" style="edgeStyle=orthogonalEdgeStyle;rounded=0;orthogonalLoop=1;jettySize=auto;html=1;exitX=1;exitY=0.5;exitDx=0;exitDy=0;entryX=0;entryY=0.5;entryDx=0;entryDy=0;" edge="1" parent="1" source="VnPzbAnFsitzOTRRG-03-3" target="VnPzbAnFsitzOTRRG-03-25">
          <mxGeometry relative="1" as="geometry" />
        </mxCell>
        <mxCell id="VnPzbAnFsitzOTRRG-03-27" value="No" style="edgeLabel;html=1;align=center;verticalAlign=middle;resizable=0;points=[];" vertex="1" connectable="0" parent="VnPzbAnFsitzOTRRG-03-26">
          <mxGeometry x="-0.2261" relative="1" as="geometry">
            <mxPoint as="offset" />
          </mxGeometry>
        </mxCell>
        <mxCell id="VnPzbAnFsitzOTRRG-03-3" value="index &amp;lt; numbers.lenght" style="rhombus;whiteSpace=wrap;html=1;" vertex="1" parent="1">
          <mxGeometry x="337.5" y="246" width="153" height="140" as="geometry" />
        </mxCell>
        <mxCell id="VnPzbAnFsitzOTRRG-03-10" style="edgeStyle=orthogonalEdgeStyle;rounded=0;orthogonalLoop=1;jettySize=auto;html=1;exitX=0.5;exitY=1;exitDx=0;exitDy=0;entryX=0.5;entryY=0;entryDx=0;entryDy=0;" edge="1" parent="1" source="VnPzbAnFsitzOTRRG-03-6" target="VnPzbAnFsitzOTRRG-03-9">
          <mxGeometry relative="1" as="geometry" />
        </mxCell>
        <mxCell id="VnPzbAnFsitzOTRRG-03-11" value="Yes" style="edgeLabel;html=1;align=center;verticalAlign=middle;resizable=0;points=[];" vertex="1" connectable="0" parent="VnPzbAnFsitzOTRRG-03-10">
          <mxGeometry x="-0.15" y="-1" relative="1" as="geometry">
            <mxPoint as="offset" />
          </mxGeometry>
        </mxCell>
        <mxCell id="VnPzbAnFsitzOTRRG-03-14" style="edgeStyle=orthogonalEdgeStyle;rounded=0;orthogonalLoop=1;jettySize=auto;html=1;exitX=1;exitY=0.5;exitDx=0;exitDy=0;entryX=0;entryY=0.5;entryDx=0;entryDy=0;" edge="1" parent="1" source="VnPzbAnFsitzOTRRG-03-6" target="VnPzbAnFsitzOTRRG-03-12">
          <mxGeometry relative="1" as="geometry" />
        </mxCell>
        <mxCell id="VnPzbAnFsitzOTRRG-03-15" value="No" style="edgeLabel;html=1;align=center;verticalAlign=middle;resizable=0;points=[];" vertex="1" connectable="0" parent="VnPzbAnFsitzOTRRG-03-14">
          <mxGeometry x="-0.1594" relative="1" as="geometry">
            <mxPoint as="offset" />
          </mxGeometry>
        </mxCell>
        <mxCell id="VnPzbAnFsitzOTRRG-03-6" value="numbers[index] &amp;gt; maximum" style="rhombus;whiteSpace=wrap;html=1;" vertex="1" parent="1">
          <mxGeometry x="327" y="440" width="174" height="130" as="geometry" />
        </mxCell>
        <mxCell id="VnPzbAnFsitzOTRRG-03-22" style="edgeStyle=orthogonalEdgeStyle;rounded=0;orthogonalLoop=1;jettySize=auto;html=1;exitX=0.5;exitY=1;exitDx=0;exitDy=0;entryX=0.5;entryY=1;entryDx=0;entryDy=0;" edge="1" parent="1" source="VnPzbAnFsitzOTRRG-03-9" target="VnPzbAnFsitzOTRRG-03-19">
          <mxGeometry relative="1" as="geometry" />
        </mxCell>
        <mxCell id="VnPzbAnFsitzOTRRG-03-9" value="count_maximal = 1" style="rounded=0;whiteSpace=wrap;html=1;" vertex="1" parent="1">
          <mxGeometry x="354" y="610" width="120" height="60" as="geometry" />
        </mxCell>
        <mxCell id="VnPzbAnFsitzOTRRG-03-16" style="edgeStyle=orthogonalEdgeStyle;rounded=0;orthogonalLoop=1;jettySize=auto;html=1;exitX=0.5;exitY=1;exitDx=0;exitDy=0;entryX=0.5;entryY=0;entryDx=0;entryDy=0;" edge="1" parent="1" source="VnPzbAnFsitzOTRRG-03-12" target="VnPzbAnFsitzOTRRG-03-13">
          <mxGeometry relative="1" as="geometry" />
        </mxCell>
        <mxCell id="VnPzbAnFsitzOTRRG-03-17" value="Yes" style="edgeLabel;html=1;align=center;verticalAlign=middle;resizable=0;points=[];" vertex="1" connectable="0" parent="VnPzbAnFsitzOTRRG-03-16">
          <mxGeometry y="-2" relative="1" as="geometry">
            <mxPoint as="offset" />
          </mxGeometry>
        </mxCell>
        <mxCell id="VnPzbAnFsitzOTRRG-03-20" style="edgeStyle=orthogonalEdgeStyle;rounded=0;orthogonalLoop=1;jettySize=auto;html=1;exitX=1;exitY=0.5;exitDx=0;exitDy=0;entryX=0.5;entryY=1;entryDx=0;entryDy=0;" edge="1" parent="1" source="VnPzbAnFsitzOTRRG-03-12" target="VnPzbAnFsitzOTRRG-03-19">
          <mxGeometry relative="1" as="geometry">
            <Array as="points">
              <mxPoint x="764" y="505" />
              <mxPoint x="764" y="720" />
              <mxPoint x="160" y="720" />
            </Array>
          </mxGeometry>
        </mxCell>
        <mxCell id="VnPzbAnFsitzOTRRG-03-21" value="No" style="edgeLabel;html=1;align=center;verticalAlign=middle;resizable=0;points=[];" vertex="1" connectable="0" parent="VnPzbAnFsitzOTRRG-03-20">
          <mxGeometry x="-0.8672" y="-2" relative="1" as="geometry">
            <mxPoint as="offset" />
          </mxGeometry>
        </mxCell>
        <mxCell id="VnPzbAnFsitzOTRRG-03-12" value="numbers[index] == maximum" style="rhombus;whiteSpace=wrap;html=1;" vertex="1" parent="1">
          <mxGeometry x="570" y="440" width="174" height="130" as="geometry" />
        </mxCell>
        <mxCell id="VnPzbAnFsitzOTRRG-03-24" style="edgeStyle=orthogonalEdgeStyle;rounded=0;orthogonalLoop=1;jettySize=auto;html=1;exitX=0.5;exitY=1;exitDx=0;exitDy=0;entryX=0.5;entryY=1;entryDx=0;entryDy=0;" edge="1" parent="1" source="VnPzbAnFsitzOTRRG-03-13" target="VnPzbAnFsitzOTRRG-03-19">
          <mxGeometry relative="1" as="geometry" />
        </mxCell>
        <mxCell id="VnPzbAnFsitzOTRRG-03-13" value="count_maximal = count_maximal&amp;nbsp;+&amp;nbsp;1" style="rounded=0;whiteSpace=wrap;html=1;" vertex="1" parent="1">
          <mxGeometry x="555.5" y="610" width="203" height="60" as="geometry" />
        </mxCell>
        <mxCell id="VnPzbAnFsitzOTRRG-03-23" style="edgeStyle=orthogonalEdgeStyle;rounded=0;orthogonalLoop=1;jettySize=auto;html=1;exitX=0.5;exitY=0;exitDx=0;exitDy=0;entryX=0;entryY=0.5;entryDx=0;entryDy=0;" edge="1" parent="1" source="VnPzbAnFsitzOTRRG-03-19" target="VnPzbAnFsitzOTRRG-03-3">
          <mxGeometry relative="1" as="geometry" />
        </mxCell>
        <mxCell id="VnPzbAnFsitzOTRRG-03-19" value="index = index + 1" style="rounded=0;whiteSpace=wrap;html=1;" vertex="1" parent="1">
          <mxGeometry x="100" y="475" width="120" height="60" as="geometry" />
        </mxCell>
        <mxCell id="VnPzbAnFsitzOTRRG-03-29" style="edgeStyle=orthogonalEdgeStyle;rounded=0;orthogonalLoop=1;jettySize=auto;html=1;exitX=0.5;exitY=0;exitDx=0;exitDy=0;entryX=0.5;entryY=1;entryDx=0;entryDy=0;" edge="1" parent="1" source="VnPzbAnFsitzOTRRG-03-25" target="VnPzbAnFsitzOTRRG-03-28">
          <mxGeometry relative="1" as="geometry" />
        </mxCell>
        <mxCell id="VnPzbAnFsitzOTRRG-03-25" value="print(count_maximal)" style="shape=document;whiteSpace=wrap;html=1;boundedLbl=1;" vertex="1" parent="1">
          <mxGeometry x="590" y="276" width="120" height="80" as="geometry" />
        </mxCell>
        <mxCell id="VnPzbAnFsitzOTRRG-03-28" value="End" style="ellipse;whiteSpace=wrap;html=1;" vertex="1" parent="1">
          <mxGeometry x="590" y="150" width="120" height="80" as="geometry" />
        </mxCell>
      </root>
    </mxGraphModel>
  </diagram>
</mxfile>
